<svg width="24" height="24" viewBox="0 0 24 24" fill="none" xmlns="http://www.w3.org/2000/svg">
<path d="M12 14.625C11.7404 14.625 11.4867 14.548 11.2708 14.4038C11.055 14.2596 10.8868 14.0546 10.7874 13.8148C10.6881 13.5749 10.6621 13.311 10.7127 13.0564C10.7634 12.8018 10.8884 12.568 11.0719 12.3844C11.2555 12.2009 11.4893 12.0759 11.7439 12.0252C11.9985 11.9746 12.2624 12.0006 12.5023 12.0999C12.7421 12.1992 12.9471 12.3675 13.0913 12.5833C13.2355 12.7992 13.3125 13.0529 13.3125 13.3125C13.3125 13.6606 13.1742 13.9944 12.9281 14.2406C12.6819 14.4867 12.3481 14.625 12 14.625ZM23.375 12C23.375 14.2498 22.7079 16.449 21.458 18.3196C20.2081 20.1902 18.4315 21.6482 16.353 22.5091C14.2745 23.3701 11.9874 23.5953 9.78085 23.1564C7.57432 22.7175 5.54749 21.6342 3.95667 20.0433C2.36584 18.4525 1.28248 16.4257 0.843573 14.2192C0.404666 12.0126 0.629929 9.72548 1.49088 7.64698C2.35182 5.56847 3.80978 3.79193 5.68039 2.54203C7.551 1.29213 9.75024 0.625 12 0.625C15.0159 0.628185 17.9073 1.82764 20.0398 3.96018C22.1724 6.09271 23.3718 8.98414 23.375 12ZM2.37501 12V12.0361C5.06249 9.75329 8.47385 8.5 12 8.5C15.5262 8.5 18.9375 9.75329 21.625 12.0361V12C21.625 9.44729 20.6109 6.99914 18.8059 5.1941C17.0009 3.38906 14.5527 2.375 12 2.375C9.4473 2.375 6.99914 3.38906 5.1941 5.1941C3.38906 6.99914 2.37501 9.44729 2.37501 12ZM9.75782 21.3603L7.89297 16.375H3.42829C4.06251 17.6124 4.95633 18.6984 6.04869 19.5588C7.14105 20.4192 8.40623 21.0337 9.75782 21.3603ZM12 21.625C12.0908 21.625 12.1816 21.625 12.2723 21.625L14.4675 15.7658C14.5935 15.4323 14.8179 15.1451 15.1109 14.9421C15.4039 14.7392 15.7517 14.6301 16.1081 14.6294H21.2619C21.3034 14.4861 21.3406 14.3406 21.3713 14.1919C20.1493 12.9451 18.6908 11.9546 17.0813 11.2785C15.4718 10.6023 13.7436 10.2541 11.9978 10.2541C10.2521 10.2541 8.52383 10.6023 6.91432 11.2785C5.30482 11.9546 3.84637 12.9451 2.62438 14.1919C2.65829 14.3384 2.69547 14.4839 2.73375 14.6294H7.89297C8.24951 14.6303 8.59733 14.7396 8.89032 14.9428C9.18332 15.1459 9.40766 15.4333 9.5336 15.7669L11.7211 21.625C11.8152 21.625 11.907 21.625 12 21.625ZM20.5717 16.375H16.107L14.2378 21.3614C15.5903 21.0353 16.8565 20.4209 17.9496 19.5603C19.0428 18.6997 19.9372 17.6132 20.5717 16.375Z" fill="#888889"/>
</svg>
